M48
;DRILL file {KiCad 4.0.7} date Tuesday, January 15, 2019 'PMt' 04:08:37 PM
;FORMAT={-:-/ absolute / inch / decimal}
FMAT,2
INCH,TZ
T1C0.035
%
G90
G05
M72
T1
X5.1Y-4.15
X5.1Y-4.35
X5.15Y-3.55
X5.2516Y-3.85
X5.35Y-3.35
X5.35Y-3.65
X5.35Y-3.85
X5.35Y-4.05
X5.35Y-4.35
X5.55Y-4.05
X5.55Y-4.35
X5.6Y-3.3
X5.6Y-3.85
X5.7Y-3.75
X5.7Y-3.95
X5.85Y-3.3
X5.85Y-3.6
X5.85Y-4.2
X5.85Y-4.2984
X6.05Y-3.75
X6.1484Y-3.75
X6.15Y-3.45
X6.3Y-4.3
T0
M30
