G04 #@! TF.FileFunction,Legend,Top*
%FSLAX46Y46*%
G04 Gerber Fmt 4.6, Leading zero omitted, Abs format (unit mm)*
G04 Created by KiCad (PCBNEW 4.0.7) date Monday, November 12, 2018 'AMt' 11:28:17 AM*
%MOMM*%
%LPD*%
G01*
G04 APERTURE LIST*
%ADD10C,0.100000*%
%ADD11C,0.300000*%
%ADD12C,0.120000*%
%ADD13C,0.150000*%
G04 APERTURE END LIST*
D10*
D11*
X155845715Y-118783571D02*
X155845715Y-117283571D01*
X156702858Y-118783571D02*
X156060001Y-117926429D01*
X156702858Y-117283571D02*
X155845715Y-118140714D01*
X157345715Y-118783571D02*
X157345715Y-117783571D01*
X157345715Y-117283571D02*
X157274286Y-117355000D01*
X157345715Y-117426429D01*
X157417143Y-117355000D01*
X157345715Y-117283571D01*
X157345715Y-117426429D01*
X158917144Y-118640714D02*
X158845715Y-118712143D01*
X158631429Y-118783571D01*
X158488572Y-118783571D01*
X158274287Y-118712143D01*
X158131429Y-118569286D01*
X158060001Y-118426429D01*
X157988572Y-118140714D01*
X157988572Y-117926429D01*
X158060001Y-117640714D01*
X158131429Y-117497857D01*
X158274287Y-117355000D01*
X158488572Y-117283571D01*
X158631429Y-117283571D01*
X158845715Y-117355000D01*
X158917144Y-117426429D01*
X159488572Y-118355000D02*
X160202858Y-118355000D01*
X159345715Y-118783571D02*
X159845715Y-117283571D01*
X160345715Y-118783571D01*
X160845715Y-118783571D02*
X160845715Y-117283571D01*
X161202858Y-117283571D01*
X161417143Y-117355000D01*
X161560001Y-117497857D01*
X161631429Y-117640714D01*
X161702858Y-117926429D01*
X161702858Y-118140714D01*
X161631429Y-118426429D01*
X161560001Y-118569286D01*
X161417143Y-118712143D01*
X161202858Y-118783571D01*
X160845715Y-118783571D01*
X164202858Y-118783571D02*
X163488572Y-118783571D01*
X163488572Y-117283571D01*
X165345715Y-118783571D02*
X165345715Y-117997857D01*
X165274286Y-117855000D01*
X165131429Y-117783571D01*
X164845715Y-117783571D01*
X164702858Y-117855000D01*
X165345715Y-118712143D02*
X165202858Y-118783571D01*
X164845715Y-118783571D01*
X164702858Y-118712143D01*
X164631429Y-118569286D01*
X164631429Y-118426429D01*
X164702858Y-118283571D01*
X164845715Y-118212143D01*
X165202858Y-118212143D01*
X165345715Y-118140714D01*
X166060001Y-118783571D02*
X166060001Y-117283571D01*
X166060001Y-117855000D02*
X166202858Y-117783571D01*
X166488572Y-117783571D01*
X166631429Y-117855000D01*
X166702858Y-117926429D01*
X166774287Y-118069286D01*
X166774287Y-118497857D01*
X166702858Y-118640714D01*
X166631429Y-118712143D01*
X166488572Y-118783571D01*
X166202858Y-118783571D01*
X166060001Y-118712143D01*
X169345715Y-118783571D02*
X168488572Y-118783571D01*
X168917144Y-118783571D02*
X168917144Y-117283571D01*
X168774287Y-117497857D01*
X168631429Y-117640714D01*
X168488572Y-117712143D01*
X156524287Y-120547857D02*
X157024287Y-120547857D01*
X157238573Y-121333571D02*
X156524287Y-121333571D01*
X156524287Y-119833571D01*
X157238573Y-119833571D01*
X157881430Y-121333571D02*
X157881430Y-119833571D01*
X158738573Y-121333571D01*
X158738573Y-119833571D01*
X160238573Y-119905000D02*
X160095716Y-119833571D01*
X159881430Y-119833571D01*
X159667145Y-119905000D01*
X159524287Y-120047857D01*
X159452859Y-120190714D01*
X159381430Y-120476429D01*
X159381430Y-120690714D01*
X159452859Y-120976429D01*
X159524287Y-121119286D01*
X159667145Y-121262143D01*
X159881430Y-121333571D01*
X160024287Y-121333571D01*
X160238573Y-121262143D01*
X160310002Y-121190714D01*
X160310002Y-120690714D01*
X160024287Y-120690714D01*
X161810002Y-121333571D02*
X161310002Y-120619286D01*
X160952859Y-121333571D02*
X160952859Y-119833571D01*
X161524287Y-119833571D01*
X161667145Y-119905000D01*
X161738573Y-119976429D01*
X161810002Y-120119286D01*
X161810002Y-120333571D01*
X161738573Y-120476429D01*
X161667145Y-120547857D01*
X161524287Y-120619286D01*
X160952859Y-120619286D01*
X163452859Y-119833571D02*
X164381430Y-119833571D01*
X163881430Y-120405000D01*
X164095716Y-120405000D01*
X164238573Y-120476429D01*
X164310002Y-120547857D01*
X164381430Y-120690714D01*
X164381430Y-121047857D01*
X164310002Y-121190714D01*
X164238573Y-121262143D01*
X164095716Y-121333571D01*
X163667144Y-121333571D01*
X163524287Y-121262143D01*
X163452859Y-121190714D01*
X164952858Y-119976429D02*
X165024287Y-119905000D01*
X165167144Y-119833571D01*
X165524287Y-119833571D01*
X165667144Y-119905000D01*
X165738573Y-119976429D01*
X165810001Y-120119286D01*
X165810001Y-120262143D01*
X165738573Y-120476429D01*
X164881430Y-121333571D01*
X165810001Y-121333571D01*
X166310001Y-119833571D02*
X167238572Y-119833571D01*
X166738572Y-120405000D01*
X166952858Y-120405000D01*
X167095715Y-120476429D01*
X167167144Y-120547857D01*
X167238572Y-120690714D01*
X167238572Y-121047857D01*
X167167144Y-121190714D01*
X167095715Y-121262143D01*
X166952858Y-121333571D01*
X166524286Y-121333571D01*
X166381429Y-121262143D01*
X166310001Y-121190714D01*
X168167143Y-119833571D02*
X168310000Y-119833571D01*
X168452857Y-119905000D01*
X168524286Y-119976429D01*
X168595715Y-120119286D01*
X168667143Y-120405000D01*
X168667143Y-120762143D01*
X168595715Y-121047857D01*
X168524286Y-121190714D01*
X168452857Y-121262143D01*
X168310000Y-121333571D01*
X168167143Y-121333571D01*
X168024286Y-121262143D01*
X167952857Y-121190714D01*
X167881429Y-121047857D01*
X167810000Y-120762143D01*
X167810000Y-120405000D01*
X167881429Y-120119286D01*
X167952857Y-119976429D01*
X168024286Y-119905000D01*
X168167143Y-119833571D01*
D12*
X132580000Y-120690000D02*
X132580000Y-113070000D01*
X139200000Y-120690000D02*
X139200000Y-113070000D01*
X132580000Y-120690000D02*
X139200000Y-120690000D01*
X132580000Y-113070000D02*
X139200000Y-113070000D01*
X158250000Y-123150000D02*
X158250000Y-130770000D01*
X151630000Y-123150000D02*
X151630000Y-130770000D01*
X158250000Y-123150000D02*
X151630000Y-123150000D01*
X158250000Y-130770000D02*
X151630000Y-130770000D01*
X161330000Y-115070000D02*
X153710000Y-115070000D01*
X161330000Y-108450000D02*
X153710000Y-108450000D01*
X161330000Y-115070000D02*
X161330000Y-108450000D01*
X153710000Y-115070000D02*
X153710000Y-108450000D01*
X135130000Y-111185000D02*
X134330000Y-111185000D01*
X134330000Y-111185000D02*
X134330000Y-109795000D01*
X134330000Y-109795000D02*
X135130000Y-109795000D01*
X135130000Y-109795000D02*
X135130000Y-109870323D01*
X134330000Y-110750000D02*
X130330000Y-110750000D01*
X130330000Y-110750000D02*
X130330000Y-110230000D01*
X130330000Y-110230000D02*
X134330000Y-110230000D01*
X134330000Y-110690000D02*
X130330000Y-110690000D01*
X134330000Y-110570000D02*
X130330000Y-110570000D01*
X134330000Y-110450000D02*
X130330000Y-110450000D01*
X134330000Y-110330000D02*
X130330000Y-110330000D01*
X136650000Y-110490000D02*
X136650000Y-111250000D01*
X136650000Y-111250000D02*
X135890000Y-111250000D01*
X136400000Y-125155000D02*
X135600000Y-125155000D01*
X135600000Y-125155000D02*
X135600000Y-123765000D01*
X135600000Y-123765000D02*
X136400000Y-123765000D01*
X136400000Y-123765000D02*
X136400000Y-123840323D01*
X135600000Y-124720000D02*
X131600000Y-124720000D01*
X131600000Y-124720000D02*
X131600000Y-124200000D01*
X131600000Y-124200000D02*
X135600000Y-124200000D01*
X135600000Y-124660000D02*
X131600000Y-124660000D01*
X135600000Y-124540000D02*
X131600000Y-124540000D01*
X135600000Y-124420000D02*
X131600000Y-124420000D01*
X135600000Y-124300000D02*
X131600000Y-124300000D01*
X137920000Y-124460000D02*
X137920000Y-125220000D01*
X137920000Y-125220000D02*
X137160000Y-125220000D01*
X163320000Y-111065000D02*
X164120000Y-111065000D01*
X164120000Y-111065000D02*
X164120000Y-112455000D01*
X164120000Y-112455000D02*
X163320000Y-112455000D01*
X163320000Y-112455000D02*
X163320000Y-112379677D01*
X164120000Y-111500000D02*
X168120000Y-111500000D01*
X168120000Y-111500000D02*
X168120000Y-112020000D01*
X168120000Y-112020000D02*
X164120000Y-112020000D01*
X164120000Y-111560000D02*
X168120000Y-111560000D01*
X164120000Y-111680000D02*
X168120000Y-111680000D01*
X164120000Y-111800000D02*
X168120000Y-111800000D01*
X164120000Y-111920000D02*
X168120000Y-111920000D01*
X161800000Y-111760000D02*
X161800000Y-111000000D01*
X161800000Y-111000000D02*
X162560000Y-111000000D01*
X162050000Y-128845000D02*
X162850000Y-128845000D01*
X162850000Y-128845000D02*
X162850000Y-130235000D01*
X162850000Y-130235000D02*
X162050000Y-130235000D01*
X162050000Y-130235000D02*
X162050000Y-130159677D01*
X162850000Y-129280000D02*
X166850000Y-129280000D01*
X166850000Y-129280000D02*
X166850000Y-129800000D01*
X166850000Y-129800000D02*
X162850000Y-129800000D01*
X162850000Y-129340000D02*
X166850000Y-129340000D01*
X162850000Y-129460000D02*
X166850000Y-129460000D01*
X162850000Y-129580000D02*
X166850000Y-129580000D01*
X162850000Y-129700000D02*
X166850000Y-129700000D01*
X160530000Y-129540000D02*
X160530000Y-128780000D01*
X160530000Y-128780000D02*
X161290000Y-128780000D01*
X150440000Y-118640000D02*
X150440000Y-115040000D01*
X149712795Y-119164184D02*
G75*
G03X150440000Y-118640000I-1122795J2324184D01*
G01*
X147491193Y-119196400D02*
G75*
G02X145990000Y-116840000I1098807J2356400D01*
G01*
X147491193Y-114483600D02*
G75*
G03X145990000Y-116840000I1098807J-2356400D01*
G01*
X149712795Y-114515816D02*
G75*
G02X150440000Y-115040000I-1122795J-2324184D01*
G01*
X144370000Y-114980000D02*
X142650000Y-114980000D01*
X142650000Y-114980000D02*
X142650000Y-118700000D01*
X142650000Y-118700000D02*
X144370000Y-118700000D01*
X144370000Y-118700000D02*
X144370000Y-114980000D01*
X143510000Y-113910000D02*
X143510000Y-114980000D01*
X143510000Y-119770000D02*
X143510000Y-118700000D01*
X144370000Y-125140000D02*
X142650000Y-125140000D01*
X142650000Y-125140000D02*
X142650000Y-128860000D01*
X142650000Y-128860000D02*
X144370000Y-128860000D01*
X144370000Y-128860000D02*
X144370000Y-125140000D01*
X143510000Y-124070000D02*
X143510000Y-125140000D01*
X143510000Y-129930000D02*
X143510000Y-128860000D01*
X149450000Y-106090000D02*
X147730000Y-106090000D01*
X147730000Y-106090000D02*
X147730000Y-109810000D01*
X147730000Y-109810000D02*
X149450000Y-109810000D01*
X149450000Y-109810000D02*
X149450000Y-106090000D01*
X148590000Y-105020000D02*
X148590000Y-106090000D01*
X148590000Y-110880000D02*
X148590000Y-109810000D01*
X149450000Y-125140000D02*
X147730000Y-125140000D01*
X147730000Y-125140000D02*
X147730000Y-128860000D01*
X147730000Y-128860000D02*
X149450000Y-128860000D01*
X149450000Y-128860000D02*
X149450000Y-125140000D01*
X148590000Y-124070000D02*
X148590000Y-125140000D01*
X148590000Y-129930000D02*
X148590000Y-128860000D01*
X153160000Y-103445000D02*
X153960000Y-103445000D01*
X153960000Y-103445000D02*
X153960000Y-104835000D01*
X153960000Y-104835000D02*
X153160000Y-104835000D01*
X153160000Y-104835000D02*
X153160000Y-104759677D01*
X153960000Y-103880000D02*
X157960000Y-103880000D01*
X157960000Y-103880000D02*
X157960000Y-104400000D01*
X157960000Y-104400000D02*
X153960000Y-104400000D01*
X153960000Y-103940000D02*
X157960000Y-103940000D01*
X153960000Y-104060000D02*
X157960000Y-104060000D01*
X153960000Y-104180000D02*
X157960000Y-104180000D01*
X153960000Y-104300000D02*
X157960000Y-104300000D01*
X151640000Y-104140000D02*
X151640000Y-103380000D01*
X151640000Y-103380000D02*
X152400000Y-103380000D01*
X136400000Y-131505000D02*
X135600000Y-131505000D01*
X135600000Y-131505000D02*
X135600000Y-130115000D01*
X135600000Y-130115000D02*
X136400000Y-130115000D01*
X136400000Y-130115000D02*
X136400000Y-130190323D01*
X135600000Y-131070000D02*
X131600000Y-131070000D01*
X131600000Y-131070000D02*
X131600000Y-130550000D01*
X131600000Y-130550000D02*
X135600000Y-130550000D01*
X135600000Y-131010000D02*
X131600000Y-131010000D01*
X135600000Y-130890000D02*
X131600000Y-130890000D01*
X135600000Y-130770000D02*
X131600000Y-130770000D01*
X135600000Y-130650000D02*
X131600000Y-130650000D01*
X137920000Y-130810000D02*
X137920000Y-131570000D01*
X137920000Y-131570000D02*
X137160000Y-131570000D01*
D13*
X131687143Y-117046666D02*
X131734762Y-117094285D01*
X131782381Y-117237142D01*
X131782381Y-117332380D01*
X131734762Y-117475238D01*
X131639524Y-117570476D01*
X131544286Y-117618095D01*
X131353810Y-117665714D01*
X131210952Y-117665714D01*
X131020476Y-117618095D01*
X130925238Y-117570476D01*
X130830000Y-117475238D01*
X130782381Y-117332380D01*
X130782381Y-117237142D01*
X130830000Y-117094285D01*
X130877619Y-117046666D01*
X131782381Y-116094285D02*
X131782381Y-116665714D01*
X131782381Y-116380000D02*
X130782381Y-116380000D01*
X130925238Y-116475238D01*
X131020476Y-116570476D01*
X131068095Y-116665714D01*
X159857143Y-127126666D02*
X159904762Y-127174285D01*
X159952381Y-127317142D01*
X159952381Y-127412380D01*
X159904762Y-127555238D01*
X159809524Y-127650476D01*
X159714286Y-127698095D01*
X159523810Y-127745714D01*
X159380952Y-127745714D01*
X159190476Y-127698095D01*
X159095238Y-127650476D01*
X159000000Y-127555238D01*
X158952381Y-127412380D01*
X158952381Y-127317142D01*
X159000000Y-127174285D01*
X159047619Y-127126666D01*
X159047619Y-126745714D02*
X159000000Y-126698095D01*
X158952381Y-126602857D01*
X158952381Y-126364761D01*
X159000000Y-126269523D01*
X159047619Y-126221904D01*
X159142857Y-126174285D01*
X159238095Y-126174285D01*
X159380952Y-126221904D01*
X159952381Y-126793333D01*
X159952381Y-126174285D01*
X157353334Y-116677143D02*
X157305715Y-116724762D01*
X157162858Y-116772381D01*
X157067620Y-116772381D01*
X156924762Y-116724762D01*
X156829524Y-116629524D01*
X156781905Y-116534286D01*
X156734286Y-116343810D01*
X156734286Y-116200952D01*
X156781905Y-116010476D01*
X156829524Y-115915238D01*
X156924762Y-115820000D01*
X157067620Y-115772381D01*
X157162858Y-115772381D01*
X157305715Y-115820000D01*
X157353334Y-115867619D01*
X157686667Y-115772381D02*
X158305715Y-115772381D01*
X157972381Y-116153333D01*
X158115239Y-116153333D01*
X158210477Y-116200952D01*
X158258096Y-116248571D01*
X158305715Y-116343810D01*
X158305715Y-116581905D01*
X158258096Y-116677143D01*
X158210477Y-116724762D01*
X158115239Y-116772381D01*
X157829524Y-116772381D01*
X157734286Y-116724762D01*
X157686667Y-116677143D01*
X133016667Y-108672381D02*
X133016667Y-109386667D01*
X132969047Y-109529524D01*
X132873809Y-109624762D01*
X132730952Y-109672381D01*
X132635714Y-109672381D01*
X134016667Y-109672381D02*
X133445238Y-109672381D01*
X133730952Y-109672381D02*
X133730952Y-108672381D01*
X133635714Y-108815238D01*
X133540476Y-108910476D01*
X133445238Y-108958095D01*
X134394167Y-125547381D02*
X134394167Y-126261667D01*
X134346547Y-126404524D01*
X134251309Y-126499762D01*
X134108452Y-126547381D01*
X134013214Y-126547381D01*
X134822738Y-125642619D02*
X134870357Y-125595000D01*
X134965595Y-125547381D01*
X135203691Y-125547381D01*
X135298929Y-125595000D01*
X135346548Y-125642619D01*
X135394167Y-125737857D01*
X135394167Y-125833095D01*
X135346548Y-125975952D01*
X134775119Y-126547381D01*
X135394167Y-126547381D01*
X164659167Y-109577381D02*
X164659167Y-110291667D01*
X164611547Y-110434524D01*
X164516309Y-110529762D01*
X164373452Y-110577381D01*
X164278214Y-110577381D01*
X165040119Y-109577381D02*
X165659167Y-109577381D01*
X165325833Y-109958333D01*
X165468691Y-109958333D01*
X165563929Y-110005952D01*
X165611548Y-110053571D01*
X165659167Y-110148810D01*
X165659167Y-110386905D01*
X165611548Y-110482143D01*
X165563929Y-110529762D01*
X165468691Y-110577381D01*
X165182976Y-110577381D01*
X165087738Y-110529762D01*
X165040119Y-110482143D01*
X163389167Y-127357381D02*
X163389167Y-128071667D01*
X163341547Y-128214524D01*
X163246309Y-128309762D01*
X163103452Y-128357381D01*
X163008214Y-128357381D01*
X164293929Y-127690714D02*
X164293929Y-128357381D01*
X164055833Y-127309762D02*
X163817738Y-128024048D01*
X164436786Y-128024048D01*
X152947619Y-118205238D02*
X152900000Y-118300476D01*
X152804762Y-118395714D01*
X152661905Y-118538571D01*
X152614286Y-118633810D01*
X152614286Y-118729048D01*
X152852381Y-118681429D02*
X152804762Y-118776667D01*
X152709524Y-118871905D01*
X152519048Y-118919524D01*
X152185714Y-118919524D01*
X151995238Y-118871905D01*
X151900000Y-118776667D01*
X151852381Y-118681429D01*
X151852381Y-118490952D01*
X151900000Y-118395714D01*
X151995238Y-118300476D01*
X152185714Y-118252857D01*
X152519048Y-118252857D01*
X152709524Y-118300476D01*
X152804762Y-118395714D01*
X152852381Y-118490952D01*
X152852381Y-118681429D01*
X152852381Y-117300476D02*
X152852381Y-117871905D01*
X152852381Y-117586191D02*
X151852381Y-117586191D01*
X151995238Y-117681429D01*
X152090476Y-117776667D01*
X152138095Y-117871905D01*
X141422381Y-117006666D02*
X140946190Y-117340000D01*
X141422381Y-117578095D02*
X140422381Y-117578095D01*
X140422381Y-117197142D01*
X140470000Y-117101904D01*
X140517619Y-117054285D01*
X140612857Y-117006666D01*
X140755714Y-117006666D01*
X140850952Y-117054285D01*
X140898571Y-117101904D01*
X140946190Y-117197142D01*
X140946190Y-117578095D01*
X141422381Y-116054285D02*
X141422381Y-116625714D01*
X141422381Y-116340000D02*
X140422381Y-116340000D01*
X140565238Y-116435238D01*
X140660476Y-116530476D01*
X140708095Y-116625714D01*
X145822381Y-127166666D02*
X145346190Y-127500000D01*
X145822381Y-127738095D02*
X144822381Y-127738095D01*
X144822381Y-127357142D01*
X144870000Y-127261904D01*
X144917619Y-127214285D01*
X145012857Y-127166666D01*
X145155714Y-127166666D01*
X145250952Y-127214285D01*
X145298571Y-127261904D01*
X145346190Y-127357142D01*
X145346190Y-127738095D01*
X144917619Y-126785714D02*
X144870000Y-126738095D01*
X144822381Y-126642857D01*
X144822381Y-126404761D01*
X144870000Y-126309523D01*
X144917619Y-126261904D01*
X145012857Y-126214285D01*
X145108095Y-126214285D01*
X145250952Y-126261904D01*
X145822381Y-126833333D01*
X145822381Y-126214285D01*
X150902381Y-108116666D02*
X150426190Y-108450000D01*
X150902381Y-108688095D02*
X149902381Y-108688095D01*
X149902381Y-108307142D01*
X149950000Y-108211904D01*
X149997619Y-108164285D01*
X150092857Y-108116666D01*
X150235714Y-108116666D01*
X150330952Y-108164285D01*
X150378571Y-108211904D01*
X150426190Y-108307142D01*
X150426190Y-108688095D01*
X149902381Y-107783333D02*
X149902381Y-107164285D01*
X150283333Y-107497619D01*
X150283333Y-107354761D01*
X150330952Y-107259523D01*
X150378571Y-107211904D01*
X150473810Y-107164285D01*
X150711905Y-107164285D01*
X150807143Y-107211904D01*
X150854762Y-107259523D01*
X150902381Y-107354761D01*
X150902381Y-107640476D01*
X150854762Y-107735714D01*
X150807143Y-107783333D01*
X150902381Y-127166666D02*
X150426190Y-127500000D01*
X150902381Y-127738095D02*
X149902381Y-127738095D01*
X149902381Y-127357142D01*
X149950000Y-127261904D01*
X149997619Y-127214285D01*
X150092857Y-127166666D01*
X150235714Y-127166666D01*
X150330952Y-127214285D01*
X150378571Y-127261904D01*
X150426190Y-127357142D01*
X150426190Y-127738095D01*
X150235714Y-126309523D02*
X150902381Y-126309523D01*
X149854762Y-126547619D02*
X150569048Y-126785714D01*
X150569048Y-126166666D01*
X155876667Y-106132381D02*
X155876667Y-106846667D01*
X155829047Y-106989524D01*
X155733809Y-107084762D01*
X155590952Y-107132381D01*
X155495714Y-107132381D01*
X156829048Y-106132381D02*
X156352857Y-106132381D01*
X156305238Y-106608571D01*
X156352857Y-106560952D01*
X156448095Y-106513333D01*
X156686191Y-106513333D01*
X156781429Y-106560952D01*
X156829048Y-106608571D01*
X156876667Y-106703810D01*
X156876667Y-106941905D01*
X156829048Y-107037143D01*
X156781429Y-107084762D01*
X156686191Y-107132381D01*
X156448095Y-107132381D01*
X156352857Y-107084762D01*
X156305238Y-107037143D01*
X134286667Y-127722381D02*
X134286667Y-128436667D01*
X134239047Y-128579524D01*
X134143809Y-128674762D01*
X134000952Y-128722381D01*
X133905714Y-128722381D01*
X135191429Y-127722381D02*
X135000952Y-127722381D01*
X134905714Y-127770000D01*
X134858095Y-127817619D01*
X134762857Y-127960476D01*
X134715238Y-128150952D01*
X134715238Y-128531905D01*
X134762857Y-128627143D01*
X134810476Y-128674762D01*
X134905714Y-128722381D01*
X135096191Y-128722381D01*
X135191429Y-128674762D01*
X135239048Y-128627143D01*
X135286667Y-128531905D01*
X135286667Y-128293810D01*
X135239048Y-128198571D01*
X135191429Y-128150952D01*
X135096191Y-128103333D01*
X134905714Y-128103333D01*
X134810476Y-128150952D01*
X134762857Y-128198571D01*
X134715238Y-128293810D01*
M02*
