G04 #@! TF.FileFunction,Copper,L1,Top,Signal*
%FSLAX46Y46*%
G04 Gerber Fmt 4.6, Leading zero omitted, Abs format (unit mm)*
G04 Created by KiCad (PCBNEW 4.0.7) date Monday, November 12, 2018 'AMt' 11:28:17 AM*
%MOMM*%
%LPD*%
G01*
G04 APERTURE LIST*
%ADD10C,0.100000*%
%ADD11C,1.600000*%
%ADD12R,1.000000X1.000000*%
%ADD13C,1.520000*%
%ADD14R,1.520000X1.520000*%
%ADD15C,1.400000*%
%ADD16O,1.400000X1.400000*%
%ADD17C,0.250000*%
%ADD18C,0.350000*%
%ADD19C,0.254000*%
G04 APERTURE END LIST*
D10*
D11*
X135890000Y-119380000D03*
X135890000Y-114380000D03*
X154940000Y-124460000D03*
X154940000Y-129460000D03*
X160020000Y-111760000D03*
X155020000Y-111760000D03*
D12*
X135890000Y-110490000D03*
X137160000Y-124460000D03*
X162560000Y-111760000D03*
X161290000Y-129540000D03*
D13*
X148590000Y-116840000D03*
X148590000Y-114300000D03*
D14*
X148590000Y-119380000D03*
D15*
X143510000Y-113030000D03*
D16*
X143510000Y-120650000D03*
D15*
X143510000Y-123190000D03*
D16*
X143510000Y-130810000D03*
D15*
X148590000Y-104140000D03*
D16*
X148590000Y-111760000D03*
D15*
X148590000Y-123190000D03*
D16*
X148590000Y-130810000D03*
D12*
X152400000Y-104140000D03*
X137160000Y-130810000D03*
D17*
X135890000Y-119380000D02*
X142240000Y-119380000D01*
X142240000Y-119380000D02*
X143510000Y-120650000D01*
X143510000Y-123190000D02*
X143510000Y-120650000D01*
X143510000Y-120650000D02*
X147320000Y-116840000D01*
X147320000Y-116840000D02*
X148590000Y-116840000D01*
X135890000Y-110490000D02*
X135890000Y-114380000D01*
X148590000Y-119380000D02*
X148590000Y-123190000D01*
X148590000Y-123190000D02*
X149860000Y-124460000D01*
X149860000Y-124460000D02*
X154940000Y-124460000D01*
D18*
X148590000Y-130810000D02*
X153590000Y-130810000D01*
X153590000Y-130810000D02*
X154940000Y-129460000D01*
X154940000Y-129460000D02*
X161210000Y-129460000D01*
X161210000Y-129460000D02*
X161290000Y-129540000D01*
X137160000Y-130810000D02*
X143510000Y-130810000D01*
X143510000Y-130810000D02*
X148590000Y-130810000D01*
X161210000Y-129460000D02*
X161290000Y-129540000D01*
X137160000Y-130810000D02*
X137160000Y-124460000D01*
D17*
X160020000Y-111760000D02*
X162560000Y-111760000D01*
X148590000Y-114300000D02*
X148590000Y-111760000D01*
X148590000Y-111760000D02*
X155020000Y-111760000D01*
X152400000Y-104140000D02*
X148590000Y-104140000D01*
X148590000Y-104140000D02*
X143510000Y-109220000D01*
X143510000Y-109220000D02*
X143510000Y-113030000D01*
D19*
G36*
X147271336Y-104477440D02*
X147418958Y-104833831D01*
X147654725Y-104895669D01*
X148283395Y-104267000D01*
X148896605Y-104267000D01*
X149525275Y-104895669D01*
X149761042Y-104833831D01*
X149937419Y-104332878D01*
X149933847Y-104267000D01*
X151265000Y-104267000D01*
X151265000Y-104267002D01*
X151423748Y-104267002D01*
X151265000Y-104425750D01*
X151265000Y-104766310D01*
X151361673Y-104999699D01*
X151540302Y-105178327D01*
X151773691Y-105275000D01*
X152114250Y-105275000D01*
X152273000Y-105116250D01*
X152273000Y-104267000D01*
X152527000Y-104267000D01*
X152527000Y-105116250D01*
X152685750Y-105275000D01*
X153026309Y-105275000D01*
X153259698Y-105178327D01*
X153438327Y-104999699D01*
X153535000Y-104766310D01*
X153535000Y-104425750D01*
X153376252Y-104267002D01*
X153535000Y-104267002D01*
X153535000Y-104267000D01*
X164978642Y-104267000D01*
X166237096Y-131953000D01*
X149275287Y-131953000D01*
X149533988Y-131780142D01*
X149640991Y-131620000D01*
X153590000Y-131620000D01*
X153899974Y-131558342D01*
X154162756Y-131382756D01*
X154651510Y-130894003D01*
X154653309Y-130894750D01*
X155224187Y-130895248D01*
X155751800Y-130677243D01*
X156155824Y-130273923D01*
X156157453Y-130270000D01*
X160185838Y-130270000D01*
X160186838Y-130275317D01*
X160325910Y-130491441D01*
X160538110Y-130636431D01*
X160790000Y-130687440D01*
X161790000Y-130687440D01*
X162025317Y-130643162D01*
X162241441Y-130504090D01*
X162386431Y-130291890D01*
X162437440Y-130040000D01*
X162437440Y-129040000D01*
X162393162Y-128804683D01*
X162254090Y-128588559D01*
X162041890Y-128443569D01*
X161790000Y-128392560D01*
X160790000Y-128392560D01*
X160554683Y-128436838D01*
X160338559Y-128575910D01*
X160287935Y-128650000D01*
X156157987Y-128650000D01*
X156157243Y-128648200D01*
X155753923Y-128244176D01*
X155226691Y-128025250D01*
X154655813Y-128024752D01*
X154128200Y-128242757D01*
X153724176Y-128646077D01*
X153505250Y-129173309D01*
X153504752Y-129744187D01*
X153506374Y-129748113D01*
X153254488Y-130000000D01*
X149640991Y-130000000D01*
X149533988Y-129839858D01*
X149100882Y-129550467D01*
X148590000Y-129448846D01*
X148079118Y-129550467D01*
X147646012Y-129839858D01*
X147539009Y-130000000D01*
X144560991Y-130000000D01*
X144453988Y-129839858D01*
X144020882Y-129550467D01*
X143510000Y-129448846D01*
X142999118Y-129550467D01*
X142566012Y-129839858D01*
X142459009Y-130000000D01*
X138215105Y-130000000D01*
X138124090Y-129858559D01*
X137970000Y-129753274D01*
X137970000Y-125515105D01*
X138111441Y-125424090D01*
X138256431Y-125211890D01*
X138307440Y-124960000D01*
X138307440Y-123960000D01*
X138263162Y-123724683D01*
X138124090Y-123508559D01*
X137911890Y-123363569D01*
X137660000Y-123312560D01*
X136660000Y-123312560D01*
X136424683Y-123356838D01*
X136208559Y-123495910D01*
X136063569Y-123708110D01*
X136012560Y-123960000D01*
X136012560Y-124960000D01*
X136056838Y-125195317D01*
X136195910Y-125411441D01*
X136350000Y-125516726D01*
X136350000Y-129754895D01*
X136208559Y-129845910D01*
X136063569Y-130058110D01*
X136012560Y-130310000D01*
X136012560Y-131310000D01*
X136056838Y-131545317D01*
X136195910Y-131761441D01*
X136408110Y-131906431D01*
X136638075Y-131953000D01*
X130937000Y-131953000D01*
X130937000Y-119664187D01*
X134454752Y-119664187D01*
X134672757Y-120191800D01*
X135076077Y-120595824D01*
X135603309Y-120814750D01*
X136174187Y-120815248D01*
X136701800Y-120597243D01*
X137105824Y-120193923D01*
X137128215Y-120140000D01*
X141925198Y-120140000D01*
X142213830Y-120428632D01*
X142175000Y-120623846D01*
X142175000Y-120676154D01*
X142276621Y-121187036D01*
X142566012Y-121620142D01*
X142750000Y-121743078D01*
X142750000Y-122062345D01*
X142378902Y-122432796D01*
X142175232Y-122923287D01*
X142174769Y-123454383D01*
X142377582Y-123945229D01*
X142752796Y-124321098D01*
X143243287Y-124524768D01*
X143774383Y-124525231D01*
X144265229Y-124322418D01*
X144641098Y-123947204D01*
X144844768Y-123456713D01*
X144845231Y-122925617D01*
X144642418Y-122434771D01*
X144270000Y-122061703D01*
X144270000Y-121743078D01*
X144453988Y-121620142D01*
X144743379Y-121187036D01*
X144845000Y-120676154D01*
X144845000Y-120623846D01*
X144806170Y-120428632D01*
X147506072Y-117728730D01*
X147762210Y-117985316D01*
X147594683Y-118016838D01*
X147378559Y-118155910D01*
X147233569Y-118368110D01*
X147182560Y-118620000D01*
X147182560Y-120140000D01*
X147226838Y-120375317D01*
X147365910Y-120591441D01*
X147578110Y-120736431D01*
X147830000Y-120787440D01*
X147830000Y-122062345D01*
X147458902Y-122432796D01*
X147255232Y-122923287D01*
X147254769Y-123454383D01*
X147457582Y-123945229D01*
X147832796Y-124321098D01*
X148323287Y-124524768D01*
X148850426Y-124525228D01*
X149322599Y-124997401D01*
X149569160Y-125162148D01*
X149860000Y-125220000D01*
X153701354Y-125220000D01*
X153722757Y-125271800D01*
X154126077Y-125675824D01*
X154653309Y-125894750D01*
X155224187Y-125895248D01*
X155751800Y-125677243D01*
X156155824Y-125273923D01*
X156374750Y-124746691D01*
X156375248Y-124175813D01*
X156157243Y-123648200D01*
X155753923Y-123244176D01*
X155226691Y-123025250D01*
X154655813Y-123024752D01*
X154128200Y-123242757D01*
X153724176Y-123646077D01*
X153701785Y-123700000D01*
X150174802Y-123700000D01*
X149924774Y-123449972D01*
X149925231Y-122925617D01*
X149722418Y-122434771D01*
X149350000Y-122061703D01*
X149350000Y-120787440D01*
X149585317Y-120743162D01*
X149801441Y-120604090D01*
X149946431Y-120391890D01*
X149997440Y-120140000D01*
X149997440Y-118620000D01*
X149953162Y-118384683D01*
X149814090Y-118168559D01*
X149601890Y-118023569D01*
X149416520Y-117986031D01*
X149771934Y-117631236D01*
X149984758Y-117118700D01*
X149985242Y-116563735D01*
X149773313Y-116050828D01*
X149381236Y-115658066D01*
X149169262Y-115570046D01*
X149379172Y-115483313D01*
X149771934Y-115091236D01*
X149984758Y-114578700D01*
X149985242Y-114023735D01*
X149773313Y-113510828D01*
X149381236Y-113118066D01*
X149350000Y-113105096D01*
X149350000Y-112853078D01*
X149533988Y-112730142D01*
X149674400Y-112520000D01*
X153781354Y-112520000D01*
X153802757Y-112571800D01*
X154206077Y-112975824D01*
X154733309Y-113194750D01*
X155304187Y-113195248D01*
X155831800Y-112977243D01*
X156235824Y-112573923D01*
X156454750Y-112046691D01*
X156454752Y-112044187D01*
X158584752Y-112044187D01*
X158802757Y-112571800D01*
X159206077Y-112975824D01*
X159733309Y-113194750D01*
X160304187Y-113195248D01*
X160831800Y-112977243D01*
X161235824Y-112573923D01*
X161258215Y-112520000D01*
X161472721Y-112520000D01*
X161595910Y-112711441D01*
X161808110Y-112856431D01*
X162060000Y-112907440D01*
X163060000Y-112907440D01*
X163295317Y-112863162D01*
X163511441Y-112724090D01*
X163656431Y-112511890D01*
X163707440Y-112260000D01*
X163707440Y-111260000D01*
X163663162Y-111024683D01*
X163524090Y-110808559D01*
X163311890Y-110663569D01*
X163060000Y-110612560D01*
X162060000Y-110612560D01*
X161824683Y-110656838D01*
X161608559Y-110795910D01*
X161469110Y-111000000D01*
X161258646Y-111000000D01*
X161237243Y-110948200D01*
X160833923Y-110544176D01*
X160306691Y-110325250D01*
X159735813Y-110324752D01*
X159208200Y-110542757D01*
X158804176Y-110946077D01*
X158585250Y-111473309D01*
X158584752Y-112044187D01*
X156454752Y-112044187D01*
X156455248Y-111475813D01*
X156237243Y-110948200D01*
X155833923Y-110544176D01*
X155306691Y-110325250D01*
X154735813Y-110324752D01*
X154208200Y-110542757D01*
X153804176Y-110946077D01*
X153781785Y-111000000D01*
X149674400Y-111000000D01*
X149533988Y-110789858D01*
X149100882Y-110500467D01*
X148590000Y-110398846D01*
X148079118Y-110500467D01*
X147646012Y-110789858D01*
X147356621Y-111222964D01*
X147255000Y-111733846D01*
X147255000Y-111786154D01*
X147356621Y-112297036D01*
X147646012Y-112730142D01*
X147830000Y-112853078D01*
X147830000Y-113104633D01*
X147800828Y-113116687D01*
X147408066Y-113508764D01*
X147195242Y-114021300D01*
X147194758Y-114576265D01*
X147406687Y-115089172D01*
X147798764Y-115481934D01*
X148010738Y-115569954D01*
X147800828Y-115656687D01*
X147408066Y-116048764D01*
X147395096Y-116080000D01*
X147320000Y-116080000D01*
X147029161Y-116137852D01*
X146782599Y-116302599D01*
X143748843Y-119336355D01*
X143510000Y-119288846D01*
X143271157Y-119336355D01*
X142777401Y-118842599D01*
X142530839Y-118677852D01*
X142240000Y-118620000D01*
X137128646Y-118620000D01*
X137107243Y-118568200D01*
X136703923Y-118164176D01*
X136176691Y-117945250D01*
X135605813Y-117944752D01*
X135078200Y-118162757D01*
X134674176Y-118566077D01*
X134455250Y-119093309D01*
X134454752Y-119664187D01*
X130937000Y-119664187D01*
X130937000Y-114664187D01*
X134454752Y-114664187D01*
X134672757Y-115191800D01*
X135076077Y-115595824D01*
X135603309Y-115814750D01*
X136174187Y-115815248D01*
X136701800Y-115597243D01*
X137105824Y-115193923D01*
X137324750Y-114666691D01*
X137325248Y-114095813D01*
X137271311Y-113965275D01*
X142754331Y-113965275D01*
X142816169Y-114201042D01*
X143317122Y-114377419D01*
X143847440Y-114348664D01*
X144203831Y-114201042D01*
X144265669Y-113965275D01*
X143510000Y-113209605D01*
X142754331Y-113965275D01*
X137271311Y-113965275D01*
X137107243Y-113568200D01*
X136703923Y-113164176D01*
X136650000Y-113141785D01*
X136650000Y-112837122D01*
X142162581Y-112837122D01*
X142191336Y-113367440D01*
X142338958Y-113723831D01*
X142574725Y-113785669D01*
X143330395Y-113030000D01*
X143689605Y-113030000D01*
X144445275Y-113785669D01*
X144681042Y-113723831D01*
X144857419Y-113222878D01*
X144828664Y-112692560D01*
X144681042Y-112336169D01*
X144445275Y-112274331D01*
X143689605Y-113030000D01*
X143330395Y-113030000D01*
X142574725Y-112274331D01*
X142338958Y-112336169D01*
X142162581Y-112837122D01*
X136650000Y-112837122D01*
X136650000Y-112094725D01*
X142754331Y-112094725D01*
X143510000Y-112850395D01*
X144265669Y-112094725D01*
X144203831Y-111858958D01*
X143702878Y-111682581D01*
X143172560Y-111711336D01*
X142816169Y-111858958D01*
X142754331Y-112094725D01*
X136650000Y-112094725D01*
X136650000Y-111577279D01*
X136841441Y-111454090D01*
X136986431Y-111241890D01*
X137037440Y-110990000D01*
X137037440Y-109990000D01*
X136993162Y-109754683D01*
X136854090Y-109538559D01*
X136641890Y-109393569D01*
X136390000Y-109342560D01*
X135390000Y-109342560D01*
X135154683Y-109386838D01*
X134938559Y-109525910D01*
X134793569Y-109738110D01*
X134742560Y-109990000D01*
X134742560Y-110990000D01*
X134786838Y-111225317D01*
X134925910Y-111441441D01*
X135130000Y-111580890D01*
X135130000Y-113141354D01*
X135078200Y-113162757D01*
X134674176Y-113566077D01*
X134455250Y-114093309D01*
X134454752Y-114664187D01*
X130937000Y-114664187D01*
X130937000Y-105075275D01*
X147834331Y-105075275D01*
X147896169Y-105311042D01*
X148397122Y-105487419D01*
X148927440Y-105458664D01*
X149283831Y-105311042D01*
X149345669Y-105075275D01*
X148590000Y-104319605D01*
X147834331Y-105075275D01*
X130937000Y-105075275D01*
X130937000Y-104267000D01*
X147259925Y-104267000D01*
X147271336Y-104477440D01*
X147271336Y-104477440D01*
G37*
X147271336Y-104477440D02*
X147418958Y-104833831D01*
X147654725Y-104895669D01*
X148283395Y-104267000D01*
X148896605Y-104267000D01*
X149525275Y-104895669D01*
X149761042Y-104833831D01*
X149937419Y-104332878D01*
X149933847Y-104267000D01*
X151265000Y-104267000D01*
X151265000Y-104267002D01*
X151423748Y-104267002D01*
X151265000Y-104425750D01*
X151265000Y-104766310D01*
X151361673Y-104999699D01*
X151540302Y-105178327D01*
X151773691Y-105275000D01*
X152114250Y-105275000D01*
X152273000Y-105116250D01*
X152273000Y-104267000D01*
X152527000Y-104267000D01*
X152527000Y-105116250D01*
X152685750Y-105275000D01*
X153026309Y-105275000D01*
X153259698Y-105178327D01*
X153438327Y-104999699D01*
X153535000Y-104766310D01*
X153535000Y-104425750D01*
X153376252Y-104267002D01*
X153535000Y-104267002D01*
X153535000Y-104267000D01*
X164978642Y-104267000D01*
X166237096Y-131953000D01*
X149275287Y-131953000D01*
X149533988Y-131780142D01*
X149640991Y-131620000D01*
X153590000Y-131620000D01*
X153899974Y-131558342D01*
X154162756Y-131382756D01*
X154651510Y-130894003D01*
X154653309Y-130894750D01*
X155224187Y-130895248D01*
X155751800Y-130677243D01*
X156155824Y-130273923D01*
X156157453Y-130270000D01*
X160185838Y-130270000D01*
X160186838Y-130275317D01*
X160325910Y-130491441D01*
X160538110Y-130636431D01*
X160790000Y-130687440D01*
X161790000Y-130687440D01*
X162025317Y-130643162D01*
X162241441Y-130504090D01*
X162386431Y-130291890D01*
X162437440Y-130040000D01*
X162437440Y-129040000D01*
X162393162Y-128804683D01*
X162254090Y-128588559D01*
X162041890Y-128443569D01*
X161790000Y-128392560D01*
X160790000Y-128392560D01*
X160554683Y-128436838D01*
X160338559Y-128575910D01*
X160287935Y-128650000D01*
X156157987Y-128650000D01*
X156157243Y-128648200D01*
X155753923Y-128244176D01*
X155226691Y-128025250D01*
X154655813Y-128024752D01*
X154128200Y-128242757D01*
X153724176Y-128646077D01*
X153505250Y-129173309D01*
X153504752Y-129744187D01*
X153506374Y-129748113D01*
X153254488Y-130000000D01*
X149640991Y-130000000D01*
X149533988Y-129839858D01*
X149100882Y-129550467D01*
X148590000Y-129448846D01*
X148079118Y-129550467D01*
X147646012Y-129839858D01*
X147539009Y-130000000D01*
X144560991Y-130000000D01*
X144453988Y-129839858D01*
X144020882Y-129550467D01*
X143510000Y-129448846D01*
X142999118Y-129550467D01*
X142566012Y-129839858D01*
X142459009Y-130000000D01*
X138215105Y-130000000D01*
X138124090Y-129858559D01*
X137970000Y-129753274D01*
X137970000Y-125515105D01*
X138111441Y-125424090D01*
X138256431Y-125211890D01*
X138307440Y-124960000D01*
X138307440Y-123960000D01*
X138263162Y-123724683D01*
X138124090Y-123508559D01*
X137911890Y-123363569D01*
X137660000Y-123312560D01*
X136660000Y-123312560D01*
X136424683Y-123356838D01*
X136208559Y-123495910D01*
X136063569Y-123708110D01*
X136012560Y-123960000D01*
X136012560Y-124960000D01*
X136056838Y-125195317D01*
X136195910Y-125411441D01*
X136350000Y-125516726D01*
X136350000Y-129754895D01*
X136208559Y-129845910D01*
X136063569Y-130058110D01*
X136012560Y-130310000D01*
X136012560Y-131310000D01*
X136056838Y-131545317D01*
X136195910Y-131761441D01*
X136408110Y-131906431D01*
X136638075Y-131953000D01*
X130937000Y-131953000D01*
X130937000Y-119664187D01*
X134454752Y-119664187D01*
X134672757Y-120191800D01*
X135076077Y-120595824D01*
X135603309Y-120814750D01*
X136174187Y-120815248D01*
X136701800Y-120597243D01*
X137105824Y-120193923D01*
X137128215Y-120140000D01*
X141925198Y-120140000D01*
X142213830Y-120428632D01*
X142175000Y-120623846D01*
X142175000Y-120676154D01*
X142276621Y-121187036D01*
X142566012Y-121620142D01*
X142750000Y-121743078D01*
X142750000Y-122062345D01*
X142378902Y-122432796D01*
X142175232Y-122923287D01*
X142174769Y-123454383D01*
X142377582Y-123945229D01*
X142752796Y-124321098D01*
X143243287Y-124524768D01*
X143774383Y-124525231D01*
X144265229Y-124322418D01*
X144641098Y-123947204D01*
X144844768Y-123456713D01*
X144845231Y-122925617D01*
X144642418Y-122434771D01*
X144270000Y-122061703D01*
X144270000Y-121743078D01*
X144453988Y-121620142D01*
X144743379Y-121187036D01*
X144845000Y-120676154D01*
X144845000Y-120623846D01*
X144806170Y-120428632D01*
X147506072Y-117728730D01*
X147762210Y-117985316D01*
X147594683Y-118016838D01*
X147378559Y-118155910D01*
X147233569Y-118368110D01*
X147182560Y-118620000D01*
X147182560Y-120140000D01*
X147226838Y-120375317D01*
X147365910Y-120591441D01*
X147578110Y-120736431D01*
X147830000Y-120787440D01*
X147830000Y-122062345D01*
X147458902Y-122432796D01*
X147255232Y-122923287D01*
X147254769Y-123454383D01*
X147457582Y-123945229D01*
X147832796Y-124321098D01*
X148323287Y-124524768D01*
X148850426Y-124525228D01*
X149322599Y-124997401D01*
X149569160Y-125162148D01*
X149860000Y-125220000D01*
X153701354Y-125220000D01*
X153722757Y-125271800D01*
X154126077Y-125675824D01*
X154653309Y-125894750D01*
X155224187Y-125895248D01*
X155751800Y-125677243D01*
X156155824Y-125273923D01*
X156374750Y-124746691D01*
X156375248Y-124175813D01*
X156157243Y-123648200D01*
X155753923Y-123244176D01*
X155226691Y-123025250D01*
X154655813Y-123024752D01*
X154128200Y-123242757D01*
X153724176Y-123646077D01*
X153701785Y-123700000D01*
X150174802Y-123700000D01*
X149924774Y-123449972D01*
X149925231Y-122925617D01*
X149722418Y-122434771D01*
X149350000Y-122061703D01*
X149350000Y-120787440D01*
X149585317Y-120743162D01*
X149801441Y-120604090D01*
X149946431Y-120391890D01*
X149997440Y-120140000D01*
X149997440Y-118620000D01*
X149953162Y-118384683D01*
X149814090Y-118168559D01*
X149601890Y-118023569D01*
X149416520Y-117986031D01*
X149771934Y-117631236D01*
X149984758Y-117118700D01*
X149985242Y-116563735D01*
X149773313Y-116050828D01*
X149381236Y-115658066D01*
X149169262Y-115570046D01*
X149379172Y-115483313D01*
X149771934Y-115091236D01*
X149984758Y-114578700D01*
X149985242Y-114023735D01*
X149773313Y-113510828D01*
X149381236Y-113118066D01*
X149350000Y-113105096D01*
X149350000Y-112853078D01*
X149533988Y-112730142D01*
X149674400Y-112520000D01*
X153781354Y-112520000D01*
X153802757Y-112571800D01*
X154206077Y-112975824D01*
X154733309Y-113194750D01*
X155304187Y-113195248D01*
X155831800Y-112977243D01*
X156235824Y-112573923D01*
X156454750Y-112046691D01*
X156454752Y-112044187D01*
X158584752Y-112044187D01*
X158802757Y-112571800D01*
X159206077Y-112975824D01*
X159733309Y-113194750D01*
X160304187Y-113195248D01*
X160831800Y-112977243D01*
X161235824Y-112573923D01*
X161258215Y-112520000D01*
X161472721Y-112520000D01*
X161595910Y-112711441D01*
X161808110Y-112856431D01*
X162060000Y-112907440D01*
X163060000Y-112907440D01*
X163295317Y-112863162D01*
X163511441Y-112724090D01*
X163656431Y-112511890D01*
X163707440Y-112260000D01*
X163707440Y-111260000D01*
X163663162Y-111024683D01*
X163524090Y-110808559D01*
X163311890Y-110663569D01*
X163060000Y-110612560D01*
X162060000Y-110612560D01*
X161824683Y-110656838D01*
X161608559Y-110795910D01*
X161469110Y-111000000D01*
X161258646Y-111000000D01*
X161237243Y-110948200D01*
X160833923Y-110544176D01*
X160306691Y-110325250D01*
X159735813Y-110324752D01*
X159208200Y-110542757D01*
X158804176Y-110946077D01*
X158585250Y-111473309D01*
X158584752Y-112044187D01*
X156454752Y-112044187D01*
X156455248Y-111475813D01*
X156237243Y-110948200D01*
X155833923Y-110544176D01*
X155306691Y-110325250D01*
X154735813Y-110324752D01*
X154208200Y-110542757D01*
X153804176Y-110946077D01*
X153781785Y-111000000D01*
X149674400Y-111000000D01*
X149533988Y-110789858D01*
X149100882Y-110500467D01*
X148590000Y-110398846D01*
X148079118Y-110500467D01*
X147646012Y-110789858D01*
X147356621Y-111222964D01*
X147255000Y-111733846D01*
X147255000Y-111786154D01*
X147356621Y-112297036D01*
X147646012Y-112730142D01*
X147830000Y-112853078D01*
X147830000Y-113104633D01*
X147800828Y-113116687D01*
X147408066Y-113508764D01*
X147195242Y-114021300D01*
X147194758Y-114576265D01*
X147406687Y-115089172D01*
X147798764Y-115481934D01*
X148010738Y-115569954D01*
X147800828Y-115656687D01*
X147408066Y-116048764D01*
X147395096Y-116080000D01*
X147320000Y-116080000D01*
X147029161Y-116137852D01*
X146782599Y-116302599D01*
X143748843Y-119336355D01*
X143510000Y-119288846D01*
X143271157Y-119336355D01*
X142777401Y-118842599D01*
X142530839Y-118677852D01*
X142240000Y-118620000D01*
X137128646Y-118620000D01*
X137107243Y-118568200D01*
X136703923Y-118164176D01*
X136176691Y-117945250D01*
X135605813Y-117944752D01*
X135078200Y-118162757D01*
X134674176Y-118566077D01*
X134455250Y-119093309D01*
X134454752Y-119664187D01*
X130937000Y-119664187D01*
X130937000Y-114664187D01*
X134454752Y-114664187D01*
X134672757Y-115191800D01*
X135076077Y-115595824D01*
X135603309Y-115814750D01*
X136174187Y-115815248D01*
X136701800Y-115597243D01*
X137105824Y-115193923D01*
X137324750Y-114666691D01*
X137325248Y-114095813D01*
X137271311Y-113965275D01*
X142754331Y-113965275D01*
X142816169Y-114201042D01*
X143317122Y-114377419D01*
X143847440Y-114348664D01*
X144203831Y-114201042D01*
X144265669Y-113965275D01*
X143510000Y-113209605D01*
X142754331Y-113965275D01*
X137271311Y-113965275D01*
X137107243Y-113568200D01*
X136703923Y-113164176D01*
X136650000Y-113141785D01*
X136650000Y-112837122D01*
X142162581Y-112837122D01*
X142191336Y-113367440D01*
X142338958Y-113723831D01*
X142574725Y-113785669D01*
X143330395Y-113030000D01*
X143689605Y-113030000D01*
X144445275Y-113785669D01*
X144681042Y-113723831D01*
X144857419Y-113222878D01*
X144828664Y-112692560D01*
X144681042Y-112336169D01*
X144445275Y-112274331D01*
X143689605Y-113030000D01*
X143330395Y-113030000D01*
X142574725Y-112274331D01*
X142338958Y-112336169D01*
X142162581Y-112837122D01*
X136650000Y-112837122D01*
X136650000Y-112094725D01*
X142754331Y-112094725D01*
X143510000Y-112850395D01*
X144265669Y-112094725D01*
X144203831Y-111858958D01*
X143702878Y-111682581D01*
X143172560Y-111711336D01*
X142816169Y-111858958D01*
X142754331Y-112094725D01*
X136650000Y-112094725D01*
X136650000Y-111577279D01*
X136841441Y-111454090D01*
X136986431Y-111241890D01*
X137037440Y-110990000D01*
X137037440Y-109990000D01*
X136993162Y-109754683D01*
X136854090Y-109538559D01*
X136641890Y-109393569D01*
X136390000Y-109342560D01*
X135390000Y-109342560D01*
X135154683Y-109386838D01*
X134938559Y-109525910D01*
X134793569Y-109738110D01*
X134742560Y-109990000D01*
X134742560Y-110990000D01*
X134786838Y-111225317D01*
X134925910Y-111441441D01*
X135130000Y-111580890D01*
X135130000Y-113141354D01*
X135078200Y-113162757D01*
X134674176Y-113566077D01*
X134455250Y-114093309D01*
X134454752Y-114664187D01*
X130937000Y-114664187D01*
X130937000Y-105075275D01*
X147834331Y-105075275D01*
X147896169Y-105311042D01*
X148397122Y-105487419D01*
X148927440Y-105458664D01*
X149283831Y-105311042D01*
X149345669Y-105075275D01*
X148590000Y-104319605D01*
X147834331Y-105075275D01*
X130937000Y-105075275D01*
X130937000Y-104267000D01*
X147259925Y-104267000D01*
X147271336Y-104477440D01*
M02*
