G04 #@! TF.FileFunction,Copper,L2,Bot,Signal*
%FSLAX46Y46*%
G04 Gerber Fmt 4.6, Leading zero omitted, Abs format (unit mm)*
G04 Created by KiCad (PCBNEW 4.0.7) date Monday, November 12, 2018 'AMt' 11:28:17 AM*
%MOMM*%
%LPD*%
G01*
G04 APERTURE LIST*
%ADD10C,0.100000*%
%ADD11C,1.600000*%
%ADD12R,1.000000X1.000000*%
%ADD13C,1.520000*%
%ADD14R,1.520000X1.520000*%
%ADD15C,1.400000*%
%ADD16O,1.400000X1.400000*%
%ADD17C,0.254000*%
G04 APERTURE END LIST*
D10*
D11*
X135890000Y-119380000D03*
X135890000Y-114380000D03*
X154940000Y-124460000D03*
X154940000Y-129460000D03*
X160020000Y-111760000D03*
X155020000Y-111760000D03*
D12*
X135890000Y-110490000D03*
X137160000Y-124460000D03*
X162560000Y-111760000D03*
X161290000Y-129540000D03*
D13*
X148590000Y-116840000D03*
X148590000Y-114300000D03*
D14*
X148590000Y-119380000D03*
D15*
X143510000Y-113030000D03*
D16*
X143510000Y-120650000D03*
D15*
X143510000Y-123190000D03*
D16*
X143510000Y-130810000D03*
D15*
X148590000Y-104140000D03*
D16*
X148590000Y-111760000D03*
D15*
X148590000Y-123190000D03*
D16*
X148590000Y-130810000D03*
D12*
X152400000Y-104140000D03*
X137160000Y-130810000D03*
D17*
G36*
X147834771Y-103007582D02*
X147458902Y-103382796D01*
X147255232Y-103873287D01*
X147254769Y-104404383D01*
X147457582Y-104895229D01*
X147832796Y-105271098D01*
X148323287Y-105474768D01*
X148854383Y-105475231D01*
X149345229Y-105272418D01*
X149721098Y-104897204D01*
X149924768Y-104406713D01*
X149925231Y-103875617D01*
X149722418Y-103384771D01*
X149347204Y-103008902D01*
X149318541Y-102997000D01*
X151876403Y-102997000D01*
X151664683Y-103036838D01*
X151448559Y-103175910D01*
X151303569Y-103388110D01*
X151252560Y-103640000D01*
X151252560Y-104640000D01*
X151296838Y-104875317D01*
X151435910Y-105091441D01*
X151648110Y-105236431D01*
X151900000Y-105287440D01*
X152900000Y-105287440D01*
X153135317Y-105243162D01*
X153351441Y-105104090D01*
X153496431Y-104891890D01*
X153547440Y-104640000D01*
X153547440Y-103640000D01*
X153503162Y-103404683D01*
X153364090Y-103188559D01*
X153151890Y-103043569D01*
X152921925Y-102997000D01*
X166248402Y-102997000D01*
X167507358Y-131953000D01*
X149276000Y-131953000D01*
X149656764Y-131612663D01*
X149882727Y-131143331D01*
X149760206Y-130937000D01*
X148717000Y-130937000D01*
X148717000Y-130957000D01*
X148463000Y-130957000D01*
X148463000Y-130937000D01*
X147419794Y-130937000D01*
X147297273Y-131143331D01*
X147523236Y-131612663D01*
X147904000Y-131953000D01*
X144196000Y-131953000D01*
X144576764Y-131612663D01*
X144802727Y-131143331D01*
X144680206Y-130937000D01*
X143637000Y-130937000D01*
X143637000Y-130957000D01*
X143383000Y-130957000D01*
X143383000Y-130937000D01*
X142339794Y-130937000D01*
X142217273Y-131143331D01*
X142443236Y-131612663D01*
X142824000Y-131953000D01*
X130937000Y-131953000D01*
X130937000Y-131095750D01*
X136025000Y-131095750D01*
X136025000Y-131436310D01*
X136121673Y-131669699D01*
X136300302Y-131848327D01*
X136533691Y-131945000D01*
X136874250Y-131945000D01*
X137033000Y-131786250D01*
X137033000Y-130937000D01*
X137287000Y-130937000D01*
X137287000Y-131786250D01*
X137445750Y-131945000D01*
X137786309Y-131945000D01*
X138019698Y-131848327D01*
X138198327Y-131669699D01*
X138295000Y-131436310D01*
X138295000Y-131095750D01*
X138136250Y-130937000D01*
X137287000Y-130937000D01*
X137033000Y-130937000D01*
X136183750Y-130937000D01*
X136025000Y-131095750D01*
X130937000Y-131095750D01*
X130937000Y-130183690D01*
X136025000Y-130183690D01*
X136025000Y-130524250D01*
X136183750Y-130683000D01*
X137033000Y-130683000D01*
X137033000Y-129833750D01*
X137287000Y-129833750D01*
X137287000Y-130683000D01*
X138136250Y-130683000D01*
X138295000Y-130524250D01*
X138295000Y-130476669D01*
X142217273Y-130476669D01*
X142339794Y-130683000D01*
X143383000Y-130683000D01*
X143383000Y-129640626D01*
X143637000Y-129640626D01*
X143637000Y-130683000D01*
X144680206Y-130683000D01*
X144802727Y-130476669D01*
X147297273Y-130476669D01*
X147419794Y-130683000D01*
X148463000Y-130683000D01*
X148463000Y-129640626D01*
X148717000Y-129640626D01*
X148717000Y-130683000D01*
X149760206Y-130683000D01*
X149882727Y-130476669D01*
X149878431Y-130467745D01*
X154111861Y-130467745D01*
X154185995Y-130713864D01*
X154723223Y-130906965D01*
X155293454Y-130879778D01*
X155694005Y-130713864D01*
X155768139Y-130467745D01*
X154940000Y-129639605D01*
X154111861Y-130467745D01*
X149878431Y-130467745D01*
X149656764Y-130007337D01*
X149268396Y-129660203D01*
X148923329Y-129517284D01*
X148717000Y-129640626D01*
X148463000Y-129640626D01*
X148256671Y-129517284D01*
X147911604Y-129660203D01*
X147523236Y-130007337D01*
X147297273Y-130476669D01*
X144802727Y-130476669D01*
X144576764Y-130007337D01*
X144188396Y-129660203D01*
X143843329Y-129517284D01*
X143637000Y-129640626D01*
X143383000Y-129640626D01*
X143176671Y-129517284D01*
X142831604Y-129660203D01*
X142443236Y-130007337D01*
X142217273Y-130476669D01*
X138295000Y-130476669D01*
X138295000Y-130183690D01*
X138198327Y-129950301D01*
X138019698Y-129771673D01*
X137786309Y-129675000D01*
X137445750Y-129675000D01*
X137287000Y-129833750D01*
X137033000Y-129833750D01*
X136874250Y-129675000D01*
X136533691Y-129675000D01*
X136300302Y-129771673D01*
X136121673Y-129950301D01*
X136025000Y-130183690D01*
X130937000Y-130183690D01*
X130937000Y-129243223D01*
X153493035Y-129243223D01*
X153520222Y-129813454D01*
X153686136Y-130214005D01*
X153932255Y-130288139D01*
X154760395Y-129460000D01*
X155119605Y-129460000D01*
X155947745Y-130288139D01*
X156193864Y-130214005D01*
X156333418Y-129825750D01*
X160155000Y-129825750D01*
X160155000Y-130166310D01*
X160251673Y-130399699D01*
X160430302Y-130578327D01*
X160663691Y-130675000D01*
X161004250Y-130675000D01*
X161163000Y-130516250D01*
X161163000Y-129667000D01*
X161417000Y-129667000D01*
X161417000Y-130516250D01*
X161575750Y-130675000D01*
X161916309Y-130675000D01*
X162149698Y-130578327D01*
X162328327Y-130399699D01*
X162425000Y-130166310D01*
X162425000Y-129825750D01*
X162266250Y-129667000D01*
X161417000Y-129667000D01*
X161163000Y-129667000D01*
X160313750Y-129667000D01*
X160155000Y-129825750D01*
X156333418Y-129825750D01*
X156386965Y-129676777D01*
X156359778Y-129106546D01*
X156279895Y-128913690D01*
X160155000Y-128913690D01*
X160155000Y-129254250D01*
X160313750Y-129413000D01*
X161163000Y-129413000D01*
X161163000Y-128563750D01*
X161417000Y-128563750D01*
X161417000Y-129413000D01*
X162266250Y-129413000D01*
X162425000Y-129254250D01*
X162425000Y-128913690D01*
X162328327Y-128680301D01*
X162149698Y-128501673D01*
X161916309Y-128405000D01*
X161575750Y-128405000D01*
X161417000Y-128563750D01*
X161163000Y-128563750D01*
X161004250Y-128405000D01*
X160663691Y-128405000D01*
X160430302Y-128501673D01*
X160251673Y-128680301D01*
X160155000Y-128913690D01*
X156279895Y-128913690D01*
X156193864Y-128705995D01*
X155947745Y-128631861D01*
X155119605Y-129460000D01*
X154760395Y-129460000D01*
X153932255Y-128631861D01*
X153686136Y-128705995D01*
X153493035Y-129243223D01*
X130937000Y-129243223D01*
X130937000Y-128452255D01*
X154111861Y-128452255D01*
X154940000Y-129280395D01*
X155768139Y-128452255D01*
X155694005Y-128206136D01*
X155156777Y-128013035D01*
X154586546Y-128040222D01*
X154185995Y-128206136D01*
X154111861Y-128452255D01*
X130937000Y-128452255D01*
X130937000Y-124745750D01*
X136025000Y-124745750D01*
X136025000Y-125086310D01*
X136121673Y-125319699D01*
X136300302Y-125498327D01*
X136533691Y-125595000D01*
X136874250Y-125595000D01*
X137033000Y-125436250D01*
X137033000Y-124587000D01*
X137287000Y-124587000D01*
X137287000Y-125436250D01*
X137445750Y-125595000D01*
X137786309Y-125595000D01*
X138019698Y-125498327D01*
X138198327Y-125319699D01*
X138295000Y-125086310D01*
X138295000Y-124745750D01*
X138293437Y-124744187D01*
X153504752Y-124744187D01*
X153722757Y-125271800D01*
X154126077Y-125675824D01*
X154653309Y-125894750D01*
X155224187Y-125895248D01*
X155751800Y-125677243D01*
X156155824Y-125273923D01*
X156374750Y-124746691D01*
X156375248Y-124175813D01*
X156157243Y-123648200D01*
X155753923Y-123244176D01*
X155226691Y-123025250D01*
X154655813Y-123024752D01*
X154128200Y-123242757D01*
X153724176Y-123646077D01*
X153505250Y-124173309D01*
X153504752Y-124744187D01*
X138293437Y-124744187D01*
X138136250Y-124587000D01*
X137287000Y-124587000D01*
X137033000Y-124587000D01*
X136183750Y-124587000D01*
X136025000Y-124745750D01*
X130937000Y-124745750D01*
X130937000Y-123833690D01*
X136025000Y-123833690D01*
X136025000Y-124174250D01*
X136183750Y-124333000D01*
X137033000Y-124333000D01*
X137033000Y-123483750D01*
X137287000Y-123483750D01*
X137287000Y-124333000D01*
X138136250Y-124333000D01*
X138295000Y-124174250D01*
X138295000Y-123833690D01*
X138198327Y-123600301D01*
X138052409Y-123454383D01*
X142174769Y-123454383D01*
X142377582Y-123945229D01*
X142752796Y-124321098D01*
X143243287Y-124524768D01*
X143774383Y-124525231D01*
X144265229Y-124322418D01*
X144641098Y-123947204D01*
X144844768Y-123456713D01*
X144844770Y-123454383D01*
X147254769Y-123454383D01*
X147457582Y-123945229D01*
X147832796Y-124321098D01*
X148323287Y-124524768D01*
X148854383Y-124525231D01*
X149345229Y-124322418D01*
X149721098Y-123947204D01*
X149924768Y-123456713D01*
X149925231Y-122925617D01*
X149722418Y-122434771D01*
X149347204Y-122058902D01*
X148856713Y-121855232D01*
X148325617Y-121854769D01*
X147834771Y-122057582D01*
X147458902Y-122432796D01*
X147255232Y-122923287D01*
X147254769Y-123454383D01*
X144844770Y-123454383D01*
X144845231Y-122925617D01*
X144642418Y-122434771D01*
X144267204Y-122058902D01*
X143944212Y-121924784D01*
X144020882Y-121909533D01*
X144453988Y-121620142D01*
X144743379Y-121187036D01*
X144845000Y-120676154D01*
X144845000Y-120623846D01*
X144743379Y-120112964D01*
X144453988Y-119679858D01*
X144020882Y-119390467D01*
X143510000Y-119288846D01*
X142999118Y-119390467D01*
X142566012Y-119679858D01*
X142276621Y-120112964D01*
X142175000Y-120623846D01*
X142175000Y-120676154D01*
X142276621Y-121187036D01*
X142566012Y-121620142D01*
X142999118Y-121909533D01*
X143076045Y-121924835D01*
X142754771Y-122057582D01*
X142378902Y-122432796D01*
X142175232Y-122923287D01*
X142174769Y-123454383D01*
X138052409Y-123454383D01*
X138019698Y-123421673D01*
X137786309Y-123325000D01*
X137445750Y-123325000D01*
X137287000Y-123483750D01*
X137033000Y-123483750D01*
X136874250Y-123325000D01*
X136533691Y-123325000D01*
X136300302Y-123421673D01*
X136121673Y-123600301D01*
X136025000Y-123833690D01*
X130937000Y-123833690D01*
X130937000Y-119664187D01*
X134454752Y-119664187D01*
X134672757Y-120191800D01*
X135076077Y-120595824D01*
X135603309Y-120814750D01*
X136174187Y-120815248D01*
X136701800Y-120597243D01*
X137105824Y-120193923D01*
X137324750Y-119666691D01*
X137325248Y-119095813D01*
X137128647Y-118620000D01*
X147182560Y-118620000D01*
X147182560Y-120140000D01*
X147226838Y-120375317D01*
X147365910Y-120591441D01*
X147578110Y-120736431D01*
X147830000Y-120787440D01*
X149350000Y-120787440D01*
X149585317Y-120743162D01*
X149801441Y-120604090D01*
X149946431Y-120391890D01*
X149997440Y-120140000D01*
X149997440Y-118620000D01*
X149953162Y-118384683D01*
X149814090Y-118168559D01*
X149601890Y-118023569D01*
X149416520Y-117986031D01*
X149771934Y-117631236D01*
X149984758Y-117118700D01*
X149985242Y-116563735D01*
X149773313Y-116050828D01*
X149381236Y-115658066D01*
X149169262Y-115570046D01*
X149379172Y-115483313D01*
X149771934Y-115091236D01*
X149984758Y-114578700D01*
X149985242Y-114023735D01*
X149773313Y-113510828D01*
X149381236Y-113118066D01*
X149117386Y-113008506D01*
X149533988Y-112730142D01*
X149823379Y-112297036D01*
X149873673Y-112044187D01*
X153584752Y-112044187D01*
X153802757Y-112571800D01*
X154206077Y-112975824D01*
X154733309Y-113194750D01*
X155304187Y-113195248D01*
X155831800Y-112977243D01*
X156235824Y-112573923D01*
X156454750Y-112046691D01*
X156454752Y-112044187D01*
X158584752Y-112044187D01*
X158802757Y-112571800D01*
X159206077Y-112975824D01*
X159733309Y-113194750D01*
X160304187Y-113195248D01*
X160831800Y-112977243D01*
X161235824Y-112573923D01*
X161412560Y-112148296D01*
X161412560Y-112260000D01*
X161456838Y-112495317D01*
X161595910Y-112711441D01*
X161808110Y-112856431D01*
X162060000Y-112907440D01*
X163060000Y-112907440D01*
X163295317Y-112863162D01*
X163511441Y-112724090D01*
X163656431Y-112511890D01*
X163707440Y-112260000D01*
X163707440Y-111260000D01*
X163663162Y-111024683D01*
X163524090Y-110808559D01*
X163311890Y-110663569D01*
X163060000Y-110612560D01*
X162060000Y-110612560D01*
X161824683Y-110656838D01*
X161608559Y-110795910D01*
X161463569Y-111008110D01*
X161412560Y-111260000D01*
X161412560Y-111372500D01*
X161237243Y-110948200D01*
X160833923Y-110544176D01*
X160306691Y-110325250D01*
X159735813Y-110324752D01*
X159208200Y-110542757D01*
X158804176Y-110946077D01*
X158585250Y-111473309D01*
X158584752Y-112044187D01*
X156454752Y-112044187D01*
X156455248Y-111475813D01*
X156237243Y-110948200D01*
X155833923Y-110544176D01*
X155306691Y-110325250D01*
X154735813Y-110324752D01*
X154208200Y-110542757D01*
X153804176Y-110946077D01*
X153585250Y-111473309D01*
X153584752Y-112044187D01*
X149873673Y-112044187D01*
X149925000Y-111786154D01*
X149925000Y-111733846D01*
X149823379Y-111222964D01*
X149533988Y-110789858D01*
X149100882Y-110500467D01*
X148590000Y-110398846D01*
X148079118Y-110500467D01*
X147646012Y-110789858D01*
X147356621Y-111222964D01*
X147255000Y-111733846D01*
X147255000Y-111786154D01*
X147356621Y-112297036D01*
X147646012Y-112730142D01*
X148062627Y-113008514D01*
X147800828Y-113116687D01*
X147408066Y-113508764D01*
X147195242Y-114021300D01*
X147194758Y-114576265D01*
X147406687Y-115089172D01*
X147798764Y-115481934D01*
X148010738Y-115569954D01*
X147800828Y-115656687D01*
X147408066Y-116048764D01*
X147195242Y-116561300D01*
X147194758Y-117116265D01*
X147406687Y-117629172D01*
X147762210Y-117985316D01*
X147594683Y-118016838D01*
X147378559Y-118155910D01*
X147233569Y-118368110D01*
X147182560Y-118620000D01*
X137128647Y-118620000D01*
X137107243Y-118568200D01*
X136703923Y-118164176D01*
X136176691Y-117945250D01*
X135605813Y-117944752D01*
X135078200Y-118162757D01*
X134674176Y-118566077D01*
X134455250Y-119093309D01*
X134454752Y-119664187D01*
X130937000Y-119664187D01*
X130937000Y-114664187D01*
X134454752Y-114664187D01*
X134672757Y-115191800D01*
X135076077Y-115595824D01*
X135603309Y-115814750D01*
X136174187Y-115815248D01*
X136701800Y-115597243D01*
X137105824Y-115193923D01*
X137324750Y-114666691D01*
X137325248Y-114095813D01*
X137107243Y-113568200D01*
X136833904Y-113294383D01*
X142174769Y-113294383D01*
X142377582Y-113785229D01*
X142752796Y-114161098D01*
X143243287Y-114364768D01*
X143774383Y-114365231D01*
X144265229Y-114162418D01*
X144641098Y-113787204D01*
X144844768Y-113296713D01*
X144845231Y-112765617D01*
X144642418Y-112274771D01*
X144267204Y-111898902D01*
X143776713Y-111695232D01*
X143245617Y-111694769D01*
X142754771Y-111897582D01*
X142378902Y-112272796D01*
X142175232Y-112763287D01*
X142174769Y-113294383D01*
X136833904Y-113294383D01*
X136703923Y-113164176D01*
X136176691Y-112945250D01*
X135605813Y-112944752D01*
X135078200Y-113162757D01*
X134674176Y-113566077D01*
X134455250Y-114093309D01*
X134454752Y-114664187D01*
X130937000Y-114664187D01*
X130937000Y-109990000D01*
X134742560Y-109990000D01*
X134742560Y-110990000D01*
X134786838Y-111225317D01*
X134925910Y-111441441D01*
X135138110Y-111586431D01*
X135390000Y-111637440D01*
X136390000Y-111637440D01*
X136625317Y-111593162D01*
X136841441Y-111454090D01*
X136986431Y-111241890D01*
X137037440Y-110990000D01*
X137037440Y-109990000D01*
X136993162Y-109754683D01*
X136854090Y-109538559D01*
X136641890Y-109393569D01*
X136390000Y-109342560D01*
X135390000Y-109342560D01*
X135154683Y-109386838D01*
X134938559Y-109525910D01*
X134793569Y-109738110D01*
X134742560Y-109990000D01*
X130937000Y-109990000D01*
X130937000Y-102997000D01*
X147860381Y-102997000D01*
X147834771Y-103007582D01*
X147834771Y-103007582D01*
G37*
X147834771Y-103007582D02*
X147458902Y-103382796D01*
X147255232Y-103873287D01*
X147254769Y-104404383D01*
X147457582Y-104895229D01*
X147832796Y-105271098D01*
X148323287Y-105474768D01*
X148854383Y-105475231D01*
X149345229Y-105272418D01*
X149721098Y-104897204D01*
X149924768Y-104406713D01*
X149925231Y-103875617D01*
X149722418Y-103384771D01*
X149347204Y-103008902D01*
X149318541Y-102997000D01*
X151876403Y-102997000D01*
X151664683Y-103036838D01*
X151448559Y-103175910D01*
X151303569Y-103388110D01*
X151252560Y-103640000D01*
X151252560Y-104640000D01*
X151296838Y-104875317D01*
X151435910Y-105091441D01*
X151648110Y-105236431D01*
X151900000Y-105287440D01*
X152900000Y-105287440D01*
X153135317Y-105243162D01*
X153351441Y-105104090D01*
X153496431Y-104891890D01*
X153547440Y-104640000D01*
X153547440Y-103640000D01*
X153503162Y-103404683D01*
X153364090Y-103188559D01*
X153151890Y-103043569D01*
X152921925Y-102997000D01*
X166248402Y-102997000D01*
X167507358Y-131953000D01*
X149276000Y-131953000D01*
X149656764Y-131612663D01*
X149882727Y-131143331D01*
X149760206Y-130937000D01*
X148717000Y-130937000D01*
X148717000Y-130957000D01*
X148463000Y-130957000D01*
X148463000Y-130937000D01*
X147419794Y-130937000D01*
X147297273Y-131143331D01*
X147523236Y-131612663D01*
X147904000Y-131953000D01*
X144196000Y-131953000D01*
X144576764Y-131612663D01*
X144802727Y-131143331D01*
X144680206Y-130937000D01*
X143637000Y-130937000D01*
X143637000Y-130957000D01*
X143383000Y-130957000D01*
X143383000Y-130937000D01*
X142339794Y-130937000D01*
X142217273Y-131143331D01*
X142443236Y-131612663D01*
X142824000Y-131953000D01*
X130937000Y-131953000D01*
X130937000Y-131095750D01*
X136025000Y-131095750D01*
X136025000Y-131436310D01*
X136121673Y-131669699D01*
X136300302Y-131848327D01*
X136533691Y-131945000D01*
X136874250Y-131945000D01*
X137033000Y-131786250D01*
X137033000Y-130937000D01*
X137287000Y-130937000D01*
X137287000Y-131786250D01*
X137445750Y-131945000D01*
X137786309Y-131945000D01*
X138019698Y-131848327D01*
X138198327Y-131669699D01*
X138295000Y-131436310D01*
X138295000Y-131095750D01*
X138136250Y-130937000D01*
X137287000Y-130937000D01*
X137033000Y-130937000D01*
X136183750Y-130937000D01*
X136025000Y-131095750D01*
X130937000Y-131095750D01*
X130937000Y-130183690D01*
X136025000Y-130183690D01*
X136025000Y-130524250D01*
X136183750Y-130683000D01*
X137033000Y-130683000D01*
X137033000Y-129833750D01*
X137287000Y-129833750D01*
X137287000Y-130683000D01*
X138136250Y-130683000D01*
X138295000Y-130524250D01*
X138295000Y-130476669D01*
X142217273Y-130476669D01*
X142339794Y-130683000D01*
X143383000Y-130683000D01*
X143383000Y-129640626D01*
X143637000Y-129640626D01*
X143637000Y-130683000D01*
X144680206Y-130683000D01*
X144802727Y-130476669D01*
X147297273Y-130476669D01*
X147419794Y-130683000D01*
X148463000Y-130683000D01*
X148463000Y-129640626D01*
X148717000Y-129640626D01*
X148717000Y-130683000D01*
X149760206Y-130683000D01*
X149882727Y-130476669D01*
X149878431Y-130467745D01*
X154111861Y-130467745D01*
X154185995Y-130713864D01*
X154723223Y-130906965D01*
X155293454Y-130879778D01*
X155694005Y-130713864D01*
X155768139Y-130467745D01*
X154940000Y-129639605D01*
X154111861Y-130467745D01*
X149878431Y-130467745D01*
X149656764Y-130007337D01*
X149268396Y-129660203D01*
X148923329Y-129517284D01*
X148717000Y-129640626D01*
X148463000Y-129640626D01*
X148256671Y-129517284D01*
X147911604Y-129660203D01*
X147523236Y-130007337D01*
X147297273Y-130476669D01*
X144802727Y-130476669D01*
X144576764Y-130007337D01*
X144188396Y-129660203D01*
X143843329Y-129517284D01*
X143637000Y-129640626D01*
X143383000Y-129640626D01*
X143176671Y-129517284D01*
X142831604Y-129660203D01*
X142443236Y-130007337D01*
X142217273Y-130476669D01*
X138295000Y-130476669D01*
X138295000Y-130183690D01*
X138198327Y-129950301D01*
X138019698Y-129771673D01*
X137786309Y-129675000D01*
X137445750Y-129675000D01*
X137287000Y-129833750D01*
X137033000Y-129833750D01*
X136874250Y-129675000D01*
X136533691Y-129675000D01*
X136300302Y-129771673D01*
X136121673Y-129950301D01*
X136025000Y-130183690D01*
X130937000Y-130183690D01*
X130937000Y-129243223D01*
X153493035Y-129243223D01*
X153520222Y-129813454D01*
X153686136Y-130214005D01*
X153932255Y-130288139D01*
X154760395Y-129460000D01*
X155119605Y-129460000D01*
X155947745Y-130288139D01*
X156193864Y-130214005D01*
X156333418Y-129825750D01*
X160155000Y-129825750D01*
X160155000Y-130166310D01*
X160251673Y-130399699D01*
X160430302Y-130578327D01*
X160663691Y-130675000D01*
X161004250Y-130675000D01*
X161163000Y-130516250D01*
X161163000Y-129667000D01*
X161417000Y-129667000D01*
X161417000Y-130516250D01*
X161575750Y-130675000D01*
X161916309Y-130675000D01*
X162149698Y-130578327D01*
X162328327Y-130399699D01*
X162425000Y-130166310D01*
X162425000Y-129825750D01*
X162266250Y-129667000D01*
X161417000Y-129667000D01*
X161163000Y-129667000D01*
X160313750Y-129667000D01*
X160155000Y-129825750D01*
X156333418Y-129825750D01*
X156386965Y-129676777D01*
X156359778Y-129106546D01*
X156279895Y-128913690D01*
X160155000Y-128913690D01*
X160155000Y-129254250D01*
X160313750Y-129413000D01*
X161163000Y-129413000D01*
X161163000Y-128563750D01*
X161417000Y-128563750D01*
X161417000Y-129413000D01*
X162266250Y-129413000D01*
X162425000Y-129254250D01*
X162425000Y-128913690D01*
X162328327Y-128680301D01*
X162149698Y-128501673D01*
X161916309Y-128405000D01*
X161575750Y-128405000D01*
X161417000Y-128563750D01*
X161163000Y-128563750D01*
X161004250Y-128405000D01*
X160663691Y-128405000D01*
X160430302Y-128501673D01*
X160251673Y-128680301D01*
X160155000Y-128913690D01*
X156279895Y-128913690D01*
X156193864Y-128705995D01*
X155947745Y-128631861D01*
X155119605Y-129460000D01*
X154760395Y-129460000D01*
X153932255Y-128631861D01*
X153686136Y-128705995D01*
X153493035Y-129243223D01*
X130937000Y-129243223D01*
X130937000Y-128452255D01*
X154111861Y-128452255D01*
X154940000Y-129280395D01*
X155768139Y-128452255D01*
X155694005Y-128206136D01*
X155156777Y-128013035D01*
X154586546Y-128040222D01*
X154185995Y-128206136D01*
X154111861Y-128452255D01*
X130937000Y-128452255D01*
X130937000Y-124745750D01*
X136025000Y-124745750D01*
X136025000Y-125086310D01*
X136121673Y-125319699D01*
X136300302Y-125498327D01*
X136533691Y-125595000D01*
X136874250Y-125595000D01*
X137033000Y-125436250D01*
X137033000Y-124587000D01*
X137287000Y-124587000D01*
X137287000Y-125436250D01*
X137445750Y-125595000D01*
X137786309Y-125595000D01*
X138019698Y-125498327D01*
X138198327Y-125319699D01*
X138295000Y-125086310D01*
X138295000Y-124745750D01*
X138293437Y-124744187D01*
X153504752Y-124744187D01*
X153722757Y-125271800D01*
X154126077Y-125675824D01*
X154653309Y-125894750D01*
X155224187Y-125895248D01*
X155751800Y-125677243D01*
X156155824Y-125273923D01*
X156374750Y-124746691D01*
X156375248Y-124175813D01*
X156157243Y-123648200D01*
X155753923Y-123244176D01*
X155226691Y-123025250D01*
X154655813Y-123024752D01*
X154128200Y-123242757D01*
X153724176Y-123646077D01*
X153505250Y-124173309D01*
X153504752Y-124744187D01*
X138293437Y-124744187D01*
X138136250Y-124587000D01*
X137287000Y-124587000D01*
X137033000Y-124587000D01*
X136183750Y-124587000D01*
X136025000Y-124745750D01*
X130937000Y-124745750D01*
X130937000Y-123833690D01*
X136025000Y-123833690D01*
X136025000Y-124174250D01*
X136183750Y-124333000D01*
X137033000Y-124333000D01*
X137033000Y-123483750D01*
X137287000Y-123483750D01*
X137287000Y-124333000D01*
X138136250Y-124333000D01*
X138295000Y-124174250D01*
X138295000Y-123833690D01*
X138198327Y-123600301D01*
X138052409Y-123454383D01*
X142174769Y-123454383D01*
X142377582Y-123945229D01*
X142752796Y-124321098D01*
X143243287Y-124524768D01*
X143774383Y-124525231D01*
X144265229Y-124322418D01*
X144641098Y-123947204D01*
X144844768Y-123456713D01*
X144844770Y-123454383D01*
X147254769Y-123454383D01*
X147457582Y-123945229D01*
X147832796Y-124321098D01*
X148323287Y-124524768D01*
X148854383Y-124525231D01*
X149345229Y-124322418D01*
X149721098Y-123947204D01*
X149924768Y-123456713D01*
X149925231Y-122925617D01*
X149722418Y-122434771D01*
X149347204Y-122058902D01*
X148856713Y-121855232D01*
X148325617Y-121854769D01*
X147834771Y-122057582D01*
X147458902Y-122432796D01*
X147255232Y-122923287D01*
X147254769Y-123454383D01*
X144844770Y-123454383D01*
X144845231Y-122925617D01*
X144642418Y-122434771D01*
X144267204Y-122058902D01*
X143944212Y-121924784D01*
X144020882Y-121909533D01*
X144453988Y-121620142D01*
X144743379Y-121187036D01*
X144845000Y-120676154D01*
X144845000Y-120623846D01*
X144743379Y-120112964D01*
X144453988Y-119679858D01*
X144020882Y-119390467D01*
X143510000Y-119288846D01*
X142999118Y-119390467D01*
X142566012Y-119679858D01*
X142276621Y-120112964D01*
X142175000Y-120623846D01*
X142175000Y-120676154D01*
X142276621Y-121187036D01*
X142566012Y-121620142D01*
X142999118Y-121909533D01*
X143076045Y-121924835D01*
X142754771Y-122057582D01*
X142378902Y-122432796D01*
X142175232Y-122923287D01*
X142174769Y-123454383D01*
X138052409Y-123454383D01*
X138019698Y-123421673D01*
X137786309Y-123325000D01*
X137445750Y-123325000D01*
X137287000Y-123483750D01*
X137033000Y-123483750D01*
X136874250Y-123325000D01*
X136533691Y-123325000D01*
X136300302Y-123421673D01*
X136121673Y-123600301D01*
X136025000Y-123833690D01*
X130937000Y-123833690D01*
X130937000Y-119664187D01*
X134454752Y-119664187D01*
X134672757Y-120191800D01*
X135076077Y-120595824D01*
X135603309Y-120814750D01*
X136174187Y-120815248D01*
X136701800Y-120597243D01*
X137105824Y-120193923D01*
X137324750Y-119666691D01*
X137325248Y-119095813D01*
X137128647Y-118620000D01*
X147182560Y-118620000D01*
X147182560Y-120140000D01*
X147226838Y-120375317D01*
X147365910Y-120591441D01*
X147578110Y-120736431D01*
X147830000Y-120787440D01*
X149350000Y-120787440D01*
X149585317Y-120743162D01*
X149801441Y-120604090D01*
X149946431Y-120391890D01*
X149997440Y-120140000D01*
X149997440Y-118620000D01*
X149953162Y-118384683D01*
X149814090Y-118168559D01*
X149601890Y-118023569D01*
X149416520Y-117986031D01*
X149771934Y-117631236D01*
X149984758Y-117118700D01*
X149985242Y-116563735D01*
X149773313Y-116050828D01*
X149381236Y-115658066D01*
X149169262Y-115570046D01*
X149379172Y-115483313D01*
X149771934Y-115091236D01*
X149984758Y-114578700D01*
X149985242Y-114023735D01*
X149773313Y-113510828D01*
X149381236Y-113118066D01*
X149117386Y-113008506D01*
X149533988Y-112730142D01*
X149823379Y-112297036D01*
X149873673Y-112044187D01*
X153584752Y-112044187D01*
X153802757Y-112571800D01*
X154206077Y-112975824D01*
X154733309Y-113194750D01*
X155304187Y-113195248D01*
X155831800Y-112977243D01*
X156235824Y-112573923D01*
X156454750Y-112046691D01*
X156454752Y-112044187D01*
X158584752Y-112044187D01*
X158802757Y-112571800D01*
X159206077Y-112975824D01*
X159733309Y-113194750D01*
X160304187Y-113195248D01*
X160831800Y-112977243D01*
X161235824Y-112573923D01*
X161412560Y-112148296D01*
X161412560Y-112260000D01*
X161456838Y-112495317D01*
X161595910Y-112711441D01*
X161808110Y-112856431D01*
X162060000Y-112907440D01*
X163060000Y-112907440D01*
X163295317Y-112863162D01*
X163511441Y-112724090D01*
X163656431Y-112511890D01*
X163707440Y-112260000D01*
X163707440Y-111260000D01*
X163663162Y-111024683D01*
X163524090Y-110808559D01*
X163311890Y-110663569D01*
X163060000Y-110612560D01*
X162060000Y-110612560D01*
X161824683Y-110656838D01*
X161608559Y-110795910D01*
X161463569Y-111008110D01*
X161412560Y-111260000D01*
X161412560Y-111372500D01*
X161237243Y-110948200D01*
X160833923Y-110544176D01*
X160306691Y-110325250D01*
X159735813Y-110324752D01*
X159208200Y-110542757D01*
X158804176Y-110946077D01*
X158585250Y-111473309D01*
X158584752Y-112044187D01*
X156454752Y-112044187D01*
X156455248Y-111475813D01*
X156237243Y-110948200D01*
X155833923Y-110544176D01*
X155306691Y-110325250D01*
X154735813Y-110324752D01*
X154208200Y-110542757D01*
X153804176Y-110946077D01*
X153585250Y-111473309D01*
X153584752Y-112044187D01*
X149873673Y-112044187D01*
X149925000Y-111786154D01*
X149925000Y-111733846D01*
X149823379Y-111222964D01*
X149533988Y-110789858D01*
X149100882Y-110500467D01*
X148590000Y-110398846D01*
X148079118Y-110500467D01*
X147646012Y-110789858D01*
X147356621Y-111222964D01*
X147255000Y-111733846D01*
X147255000Y-111786154D01*
X147356621Y-112297036D01*
X147646012Y-112730142D01*
X148062627Y-113008514D01*
X147800828Y-113116687D01*
X147408066Y-113508764D01*
X147195242Y-114021300D01*
X147194758Y-114576265D01*
X147406687Y-115089172D01*
X147798764Y-115481934D01*
X148010738Y-115569954D01*
X147800828Y-115656687D01*
X147408066Y-116048764D01*
X147195242Y-116561300D01*
X147194758Y-117116265D01*
X147406687Y-117629172D01*
X147762210Y-117985316D01*
X147594683Y-118016838D01*
X147378559Y-118155910D01*
X147233569Y-118368110D01*
X147182560Y-118620000D01*
X137128647Y-118620000D01*
X137107243Y-118568200D01*
X136703923Y-118164176D01*
X136176691Y-117945250D01*
X135605813Y-117944752D01*
X135078200Y-118162757D01*
X134674176Y-118566077D01*
X134455250Y-119093309D01*
X134454752Y-119664187D01*
X130937000Y-119664187D01*
X130937000Y-114664187D01*
X134454752Y-114664187D01*
X134672757Y-115191800D01*
X135076077Y-115595824D01*
X135603309Y-115814750D01*
X136174187Y-115815248D01*
X136701800Y-115597243D01*
X137105824Y-115193923D01*
X137324750Y-114666691D01*
X137325248Y-114095813D01*
X137107243Y-113568200D01*
X136833904Y-113294383D01*
X142174769Y-113294383D01*
X142377582Y-113785229D01*
X142752796Y-114161098D01*
X143243287Y-114364768D01*
X143774383Y-114365231D01*
X144265229Y-114162418D01*
X144641098Y-113787204D01*
X144844768Y-113296713D01*
X144845231Y-112765617D01*
X144642418Y-112274771D01*
X144267204Y-111898902D01*
X143776713Y-111695232D01*
X143245617Y-111694769D01*
X142754771Y-111897582D01*
X142378902Y-112272796D01*
X142175232Y-112763287D01*
X142174769Y-113294383D01*
X136833904Y-113294383D01*
X136703923Y-113164176D01*
X136176691Y-112945250D01*
X135605813Y-112944752D01*
X135078200Y-113162757D01*
X134674176Y-113566077D01*
X134455250Y-114093309D01*
X134454752Y-114664187D01*
X130937000Y-114664187D01*
X130937000Y-109990000D01*
X134742560Y-109990000D01*
X134742560Y-110990000D01*
X134786838Y-111225317D01*
X134925910Y-111441441D01*
X135138110Y-111586431D01*
X135390000Y-111637440D01*
X136390000Y-111637440D01*
X136625317Y-111593162D01*
X136841441Y-111454090D01*
X136986431Y-111241890D01*
X137037440Y-110990000D01*
X137037440Y-109990000D01*
X136993162Y-109754683D01*
X136854090Y-109538559D01*
X136641890Y-109393569D01*
X136390000Y-109342560D01*
X135390000Y-109342560D01*
X135154683Y-109386838D01*
X134938559Y-109525910D01*
X134793569Y-109738110D01*
X134742560Y-109990000D01*
X130937000Y-109990000D01*
X130937000Y-102997000D01*
X147860381Y-102997000D01*
X147834771Y-103007582D01*
M02*
