M48
;DRILL file {KiCad 4.0.7} date Monday, November 12, 2018 'AMt' 11:29:01 AM
;FORMAT={-:-/ absolute / inch / decimal}
FMAT,2
INCH,TZ
T1C0.026
T2C0.028
T3C0.031
%
G90
G05
M72
T1
X5.35Y-4.35
X5.4Y-4.9
X5.4Y-5.15
X6.Y-4.1
X6.35Y-5.1
X6.4Y-4.4
T2
X5.65Y-4.45
X5.65Y-4.75
X5.65Y-4.85
X5.65Y-5.15
X5.85Y-4.1
X5.85Y-4.4
X5.85Y-4.85
X5.85Y-5.15
T3
X5.35Y-4.5031
X5.35Y-4.7
X5.85Y-4.5
X5.85Y-4.6
X5.85Y-4.7
X6.1Y-4.9
X6.1Y-5.0969
X6.1031Y-4.4
X6.3Y-4.4
T0
M30
